<svg xmlns="http://www.w3.org/2000/svg" xmlns:xlink="http://www.w3.org/1999/xlink" style="display:none">

<!-- Photoshop-->
<symbol id="photoshop" viewBox="0 0 512 512">
<path d="M6.99805 11.998H506.002V498.002H6.99805V11.998Z" fill="#7EBCF9"/>
<path d="M45.0081 51.016H466.995V458.985H45.0081V51.016Z" fill="#30267E"/>
<path opacity="0.302" d="M376 214L316 231L239 159L153 168L150 246L130 357L292 459H467V281L376 214Z" fill="black"/>
<path opacity="0.302" d="M45.0081 51.001H466.995V64.999H45.0081V51.001Z" fill="black"/>
<path d="M129.935 153.748C143.376 151.304 162.012 149.471 187.368 149.471C214.863 149.471 235.025 155.276 248.162 166.273C260.381 176.355 268.325 192.546 268.325 211.792C268.325 231.344 262.215 247.535 250.606 258.533C235.637 273.503 212.113 280.529 185.535 280.529C178.509 280.529 172.093 280.223 167.205 279.307V356.903H129.934L129.935 153.748ZM167.205 249.673C171.787 250.895 177.897 251.2 185.535 251.2C213.64 251.2 230.748 237.452 230.748 213.319C230.748 190.406 214.862 178.187 188.895 178.187C178.508 178.187 171.176 179.104 167.205 180.02V249.673Z" fill="#7EBCF9"/>
<path d="M285.124 322.381C293.678 327.575 309.869 333.073 323.311 333.073C339.808 333.073 347.14 326.352 347.14 316.577C347.14 306.495 341.03 301.302 322.701 294.887C293.679 284.806 281.459 268.919 281.764 251.507C281.764 225.234 303.453 204.766 337.975 204.766C354.472 204.766 368.83 209.043 377.384 213.625L370.052 240.203C363.637 236.537 351.722 231.649 338.586 231.649C325.144 231.649 317.812 238.065 317.812 247.229C317.812 256.699 324.838 261.282 343.78 268.003C370.664 277.779 383.189 291.526 383.494 313.522C383.494 340.406 362.415 359.958 323.006 359.958C304.983 359.958 288.791 355.682 277.793 349.571L285.124 322.381Z" fill="#7EBCF9"/>
</symbol>

<!-- Illustrator-->
<symbol id="illustrator" viewBox="0 0 512 512">
<path d="M6.99805 11.998H506.002V498.002H6.99805V11.998Z" fill="#FFAA2B"/>
<path d="M45.0081 51.016H466.995V458.985H45.0081V51.016Z" fill="#3B3323"/>
<path opacity="0.302" d="M364 148C364.997 148.664 336 179 336 179L373.387 208.456L339 234L253 151L212 161L186 244L139 357L283 459H467V231C467 231 363.003 147.336 364 148ZM45.0081 51.001H466.995V64.999H45.0081V51.001Z" fill="black"/>
<path d="M196.007 298.553L178.288 356.903H139.49L205.477 150.999H253.44L320.344 356.903H280.018L261.383 298.553H196.007ZM254.968 270.142L238.777 219.43C234.806 206.905 231.445 192.852 228.39 180.937H227.779C224.724 192.852 221.669 207.209 218.003 219.43L202.117 270.142H254.968ZM375.329 166.578C375.329 177.881 367.081 186.741 353.944 186.741C341.419 186.741 333.171 177.882 333.171 166.578C333.171 154.969 341.725 146.11 354.25 146.11C367.081 146.11 375.023 154.969 375.329 166.578ZM335.31 356.902V208.125H373.191V356.902H335.31Z" fill="#FFAA2B"/>
</symbol>

<!-- Premiere-->
<symbol id="premiere" viewBox="0 0 512 512">
<path d="M6.99805 11.998H506.002V498.002H6.99805V11.998Z" fill="#D757FF"/>
<path d="M45.0078 51.016H466.995V458.985H45.0078V51.016Z" fill="#3A2641"/>
<path opacity="0.302" d="M368 209L355 239L323 211L306 215L241 162L142 157L141 359L274 459H467V289L368 209Z" fill="black"/>
<path opacity="0.302" d="M45.0078 51.001H466.995V64.999H45.0078V51.001Z" fill="black"/>
<path d="M141.95 155.749C154.048 153.305 170.819 151.472 193.64 151.472C218.386 151.472 236.532 157.277 248.355 168.274C259.353 178.356 266.502 194.547 266.502 213.793C266.502 233.345 261.003 249.536 250.555 260.534C237.082 275.504 215.911 282.53 191.991 282.53C185.667 282.53 179.893 282.224 175.494 281.308V358.904H141.95V155.749ZM175.494 251.674C179.619 252.896 185.117 253.201 191.991 253.201C217.286 253.201 232.683 239.453 232.683 215.32C232.683 192.407 218.386 180.188 195.015 180.188C185.667 180.188 179.068 181.105 175.494 182.021V251.674Z" fill="#D757FF"/>
<path d="M294.268 258.09C294.268 237.927 293.994 223.569 293.168 210.127H322.587L323.688 238.538H324.788C331.387 217.459 347.059 206.767 361.356 206.767C364.655 206.767 366.58 207.073 369.329 207.684V243.122C366.58 242.511 363.556 241.9 359.432 241.9C343.209 241.9 332.212 253.509 329.188 270.311C328.637 273.671 328.087 277.643 328.087 281.919V358.904H294.269V258.09H294.268Z" fill="#D757FF"/>
</symbol>

<!-- Figma-->
<symbol id="figma" viewBox="0 0 512 512">
<g clip-path="url(#clip0_1_25)">
<path d="M170.667 512C217.771 512 256 473.771 256 426.667V341.333H170.667C123.563 341.333 85.3333 379.563 85.3333 426.667C85.3333 473.771 123.563 512 170.667 512Z" fill="#0ACF83"/>
<path d="M85.3333 256C85.3333 208.896 123.563 170.667 170.667 170.667H256V341.333H170.667C123.563 341.333 85.3333 303.104 85.3333 256Z" fill="#A259FF"/>
<path d="M85.3333 85.3333C85.3333 38.2293 123.563 0 170.667 0H256V170.667H170.667C123.563 170.667 85.3333 132.437 85.3333 85.3333Z" fill="#F24E1E"/>
<path d="M256 0H341.333C388.437 0 426.667 38.2293 426.667 85.3333C426.667 132.437 388.437 170.667 341.333 170.667H256V0Z" fill="#FF7262"/>
<path d="M426.667 256C426.667 303.104 388.437 341.333 341.333 341.333C294.229 341.333 256 303.104 256 256C256 208.896 294.229 170.667 341.333 170.667C388.437 170.667 426.667 208.896 426.667 256Z" fill="#1ABCFE"/>
</g>
<defs>
<clipPath id="clip0_1_25">
<rect width="512" height="512" fill="white"/>
</clipPath>
</defs>
</symbol>

<!--HTML-->
<symbol id="html" viewBox="0 0 512 512">
<path d="M436.818 101.366L403.856 470.63L255.688 511.707L107.928 470.687L75 101.366H436.818Z" fill="#E44D26"/>
<path d="M255.909 480.309L375.636 447.116L403.803 131.563H255.909V480.309Z" fill="#F16529"/>
<path d="M191.831 222.156H255.909V176.86H142.329L143.412 189.012L154.546 313.835H255.909V268.539H195.971L191.831 222.156ZM202.04 336.483H156.57L162.915 407.605L255.7 433.361L255.909 433.304V386.177L255.71 386.23L205.265 372.608L202.04 336.483Z" fill="#EBEBEB"/>
<path d="M108.663 1H131.682V23.7422H152.739V1H175.759V69.869H152.74V46.8077H131.683V69.869H108.665L108.663 1ZM206.028 23.8386H185.767V1H249.326V23.8386H229.051V69.869H206.032V23.8386H206.028ZM259.412 1H283.414L298.178 25.1987L312.928 1H336.94V69.869H314.015V35.7337L298.178 60.2204H297.781L281.935 35.7337V69.869H259.412V1ZM348.395 1H371.421V47.1055H403.792V69.869H348.394V1H348.395Z" fill="black"/>
<path d="M255.753 313.835H311.53L306.271 372.58L255.751 386.215V433.339L348.611 407.605L349.291 399.952L359.937 280.702L361.042 268.539H255.753V313.835ZM255.753 222.045V222.156H365.163L366.071 211.975L368.136 189.012L369.218 176.86H255.753V222.045Z" fill="white"/>
</symbol>

<!-- CSS-->
<symbol id="css" viewBox="0 0 512 512">
<path d="M255.688 511.707L107.928 470.687L75 101.366H436.818L403.856 470.63L255.688 511.707Z" fill="#264DE4"/>
<path d="M375.636 447.116L403.803 131.563H255.909V480.309L375.636 447.116Z" fill="#2965F1"/>
<path d="M150.487 268.539L154.546 313.835H255.909V268.539H150.487ZM142.329 176.86L146.446 222.156H255.909V176.86H142.329ZM255.909 386.177L255.711 386.23L205.265 372.608L202.04 336.483H156.57L162.915 407.605L255.701 433.361L255.909 433.304V386.177Z" fill="#EBEBEB"/>
<path d="M160.152 1H215.012V23.9421H183.094V46.8843H215.014V69.825H160.152V1ZM225.985 1H280.845V20.9496H248.927V24.9392H280.845V70.8235H225.986V49.874H257.905V45.8844H225.983L225.985 1ZM291.819 1H346.679V20.9496H314.761V24.9392H346.679V70.8235H291.819V49.874H323.737V45.8844H291.82V1H291.819Z" fill="black"/>
<path d="M361.042 268.539L369.219 176.86H255.753V222.156H319.579L315.457 268.539H255.753V313.835H311.53L306.271 372.58L255.752 386.215V433.339L348.611 407.605L349.292 399.952L359.938 280.702L361.042 268.539Z" fill="white"/>
</symbol>

<!-- Linkedin-->
<symbol id="linkedin" viewBox="0 0 512 512">
<g clip-path="url(#clip0_2_14)">
<path d="M483.556 0H28.4444C12.735 0 0 12.735 0 28.4444V483.556C0 499.265 12.735 512 28.4444 512H483.556C499.265 512 512 499.265 512 483.556V28.4444C512 12.735 499.265 0 483.556 0Z" fill="#117EB8"/>
<path fill-rule="evenodd" clip-rule="evenodd" d="M93.4329 198.03H161.863V418.204H93.4329V198.03ZM127.659 88.5831C149.54 88.5831 167.317 106.361 167.317 128.242C167.317 150.144 149.54 167.929 127.659 167.929C122.386 168.029 117.145 167.076 112.245 165.127C107.344 163.179 102.881 160.272 99.1164 156.578C95.3519 152.884 92.3616 148.477 90.3203 143.614C88.2789 138.751 87.2275 133.53 87.2275 128.256C87.2275 122.982 88.2789 117.761 90.3203 112.898C92.3616 108.035 95.3519 103.627 99.1164 99.9336C102.881 96.2398 107.344 93.3334 112.245 91.3845C117.145 89.4356 122.386 88.4832 127.659 88.5831ZM204.786 198.023H270.421V228.11H271.332C280.469 210.802 302.791 192.555 336.078 192.555C405.369 192.555 418.169 238.158 418.169 297.444V418.204H349.781V311.132C349.781 285.604 349.312 252.757 314.226 252.757C278.62 252.757 273.152 280.569 273.152 309.291V418.204H204.779V198.03L204.786 198.023Z" fill="white"/>
</g>
<defs>
<clipPath id="clip0_2_14">
<rect width="512" height="512" fill="white"/>
</clipPath>
</defs>
</symbol>

<!-- Behance-->
<symbol id="behance" viewBox="0 0 512 512">
<g clip-path="url(#clip0_2_19)">
<path d="M483.556 0H28.4444C12.735 0 0 12.735 0 28.4444V483.556C0 499.265 12.735 512 28.4444 512H483.556C499.265 512 512 499.265 512 483.556V28.4444C512 12.735 499.265 0 483.556 0Z" fill="url(#paint0_linear_2_19)"/>
<path fill-rule="evenodd" clip-rule="evenodd" d="M180.893 328.875C185.451 328.875 189.781 328.448 193.856 327.509C197.981 326.585 201.657 325.099 204.75 322.916C207.844 320.818 210.404 317.945 212.26 314.283C214.13 310.656 215.026 305.963 215.026 300.252C215.026 289.102 211.982 281.195 205.924 276.373C199.858 271.644 191.773 269.284 181.817 269.284H131.556V328.875H180.893ZM178.34 236.75C186.532 236.75 193.316 234.759 198.677 230.692C203.997 226.688 206.585 220.082 206.585 211.008C206.585 205.973 205.717 201.813 203.997 198.585C202.352 195.479 199.894 192.878 196.885 191.061C193.766 189.149 190.305 187.86 186.695 187.264C182.78 186.514 178.799 186.156 174.813 186.197H131.556V236.757H178.347L178.34 236.75ZM184.32 149.333C194.361 149.333 203.428 150.229 211.705 152.078C219.947 153.877 226.973 156.878 232.917 161.003C238.77 165.127 243.342 170.603 246.621 177.508C249.821 184.306 251.428 192.825 251.428 202.894C251.428 213.788 249.031 222.884 244.231 230.165C239.396 237.426 232.292 243.385 222.805 248.014C235.726 251.84 245.298 258.574 251.641 268.16C258.02 277.817 261.141 289.358 261.141 302.898C261.141 313.87 259.101 323.321 255.026 331.271C251.118 339.022 245.427 345.736 238.421 350.862C231.474 355.932 223.488 359.652 214.535 362.076C205.592 364.512 196.362 365.737 187.093 365.717H85.3335V149.333H184.32ZM375.019 245.831C379.997 251.534 383.645 259.648 384.64 270.613H316.701C316.976 267.117 317.615 263.659 318.606 260.295C319.673 256.384 321.522 252.722 324.203 249.252C326.912 245.838 330.461 242.951 334.784 240.626C339.193 238.265 344.725 237.106 351.396 237.106C361.65 237.106 370.055 240.178 375.019 245.831ZM327.04 328.142C333.291 334.436 342.329 337.6 354.041 337.6C362.461 337.6 369.742 335.417 375.851 331.036C381.895 326.663 385.586 321.998 387.001 317.148H423.78C417.877 336.007 408.903 349.476 396.665 357.575C384.576 365.71 369.828 369.771 352.647 369.771C340.672 369.771 329.892 367.78 320.221 363.84C310.905 360.079 302.525 354.326 295.666 346.987C289.045 339.684 283.897 331.036 280.235 320.882C276.608 310.784 274.773 299.598 274.773 287.488C274.773 275.769 276.679 264.825 280.391 254.706C284.181 244.558 289.422 235.804 296.306 228.444C303.26 221.027 311.638 215.087 320.939 210.98C330.482 206.741 340.999 204.601 352.654 204.601C365.511 204.601 376.775 207.147 386.432 212.352C395.855 217.317 403.977 224.43 410.141 233.116C416.334 241.792 420.743 251.719 423.502 262.862C426.226 273.956 427.186 285.582 426.404 297.735H316.701C316.701 310.123 320.768 321.849 327.04 328.142ZM308.16 163.84H393.266V185.202H308.16V163.84Z" fill="#FFFFFE"/>
</g>
<defs>
<linearGradient id="paint0_linear_2_19" x1="25600" y1="0" x2="25600" y2="51200" gradientUnits="userSpaceOnUse">
<stop stop-color="#008EF9"/>
<stop offset="1" stop-color="#0453FA"/>
</linearGradient>
<clipPath id="clip0_2_19">
<rect width="512" height="512" fill="white"/>
</clipPath>
</defs>
</symbol>

<!-- Dribbble-->
<symbol id="dribbble" viewBox="0 0 512 512">
<g clip-path="url(#clip0_2_24)">
<path d="M0 0H512V512H0V0Z" fill="#E84C88"/>
<path d="M256 436.185C157.046 436.185 75.8154 355.446 75.8154 256C75.8154 156.554 157.046 75.8154 256 75.8154C354.954 75.8154 436.185 157.046 436.185 256C436.185 354.954 355.446 436.185 256 436.185ZM408.123 280.615C402.708 279.138 359.877 266.338 312.123 274.215C331.815 329.846 340.185 374.154 341.662 384C376.615 359.877 400.739 323.446 408.123 280.615ZM316.062 397.785C313.6 384 304.739 336.738 283.077 280.615H282.092C195.939 311.138 164.431 371.2 161.477 376.615C188.062 396.8 220.554 409.6 256 409.6C277.662 409.6 297.846 405.662 316.062 397.785ZM141.785 359.385C144.739 353.969 187.569 283.569 266.831 257.969C269.292 256.985 270.769 256.492 273.231 256.492C269.292 247.631 265.354 238.769 260.431 229.908C183.631 253.046 109.292 252.062 101.908 251.569V256.492C102.4 295.877 116.677 331.815 141.785 359.385ZM105.354 224.985C112.739 224.985 175.754 224.985 247.631 206.769C222.031 160.985 194.954 123.569 191.015 118.154C147.2 137.846 115.2 176.738 105.354 224.985ZM220.062 107.323C224 112.738 252.062 151.138 277.662 196.923C331.815 176.246 355.446 145.723 358.4 141.785C331.323 117.662 295.385 103.385 256.985 103.385C243.2 102.4 231.385 103.877 220.062 107.323ZM375.138 159.015C371.692 162.954 346.585 196.431 289.477 220.062C292.923 227.446 296.862 234.338 299.815 242.215C300.8 244.677 302.277 247.631 303.262 250.092C354.462 243.692 405.662 254.031 410.585 255.015C409.6 218.585 396.8 185.6 375.138 159.015Z" fill="white"/>
</g>
<defs>
<clipPath id="clip0_2_24">
<rect width="512" height="512" fill="white"/>
</clipPath>
</defs>
</symbol>

<!-- Github-->
<symbol id="github" viewBox="0 0 512 512">
<g clip-path="url(#clip0_2_27)">
<path d="M483.556 0H28.4444C12.735 0 0 12.735 0 28.4444V483.556C0 499.265 12.735 512 28.4444 512H483.556C499.265 512 512 499.265 512 483.556V28.4444C512 12.735 499.265 0 483.556 0Z" fill="white"/>
<path fill-rule="evenodd" clip-rule="evenodd" d="M28.4444 0C12.7289 0 0 12.7858 0 28.4444V483.556C0 499.271 12.6933 512 28.4444 512H170.667C184.889 512 192.562 491.804 192.562 485.063C192.562 478.976 192.327 458.873 192.213 437.554C120.996 452.985 105.963 407.445 105.963 407.445C94.3218 377.948 77.5396 370.105 77.5396 370.105C54.3147 354.268 79.2889 354.588 79.2889 354.588C104.996 356.388 118.535 380.885 118.535 380.885C141.362 419.904 178.425 408.619 193.031 402.105C195.328 385.607 201.963 374.35 209.287 367.972C152.427 361.522 92.6507 339.641 92.6507 241.863C92.6507 214.002 102.649 191.232 119.033 173.362C116.366 166.94 107.605 140.985 121.508 105.835C121.508 105.835 143.004 98.9725 191.922 131.989C212.345 126.336 234.247 123.499 256 123.406C277.76 123.499 299.676 126.336 320.135 131.989C368.996 98.9725 390.464 105.835 390.464 105.835C404.402 140.985 395.634 166.94 392.974 173.362C409.387 191.239 419.321 214.002 419.321 241.863C419.321 339.876 359.431 361.458 302.428 367.772C311.609 375.694 319.794 391.225 319.794 415.033C319.794 449.18 319.495 476.658 319.495 485.063C319.495 491.854 319.495 512 341.333 512H483.541C491.085 511.994 498.318 508.996 503.653 503.663C508.989 498.331 511.991 491.099 512 483.556V28.4444C512 12.7289 499.214 0 483.556 0H28.4444ZM96.96 366.4C96.3911 367.666 94.4 368.043 92.5724 367.175C90.7164 366.343 89.6711 364.615 90.2756 363.342C90.8302 362.034 92.8356 361.671 94.6844 362.546C96.5476 363.378 97.6 365.127 96.96 366.4ZM107.328 377.92C106.112 379.058 103.723 378.532 102.101 376.747C100.43 374.969 100.11 372.587 101.355 371.442C102.613 370.311 104.924 370.844 106.603 372.622C108.281 374.421 108.608 376.775 107.328 377.92ZM117.426 392.626C115.861 393.707 113.294 392.697 111.708 390.421C110.137 388.146 110.137 385.429 111.737 384.341C113.33 383.253 115.861 384.228 117.461 386.482C119.026 388.793 119.026 391.509 117.426 392.626ZM131.25 406.82C129.849 408.363 126.862 407.95 124.672 405.845C122.432 403.783 121.813 400.868 123.221 399.324C124.644 397.781 127.644 398.215 129.849 400.299C132.068 402.361 132.75 405.298 131.25 406.82ZM150.329 415.068C149.71 417.06 146.83 417.977 143.929 417.131C141.035 416.249 139.143 413.909 139.733 411.89C140.331 409.877 143.218 408.932 146.14 409.842C149.035 410.709 150.933 413.035 150.336 415.068H150.329ZM171.278 416.597C171.349 418.702 168.896 420.444 165.852 420.487C162.795 420.551 160.313 418.852 160.277 416.775C160.277 414.649 162.681 412.921 165.746 412.871C168.789 412.814 171.278 414.507 171.278 416.597ZM190.777 413.291C191.14 415.339 189.028 417.451 186.005 418.012C183.033 418.553 180.281 417.287 179.904 415.246C179.534 413.141 181.682 411.036 184.654 410.489C187.684 409.963 190.4 411.2 190.777 413.291Z" fill="#161614"/>
</g>
<defs>
<clipPath id="clip0_2_27">
<rect width="512" height="512" fill="white"/>
</clipPath>
</defs>
</symbol>


</svg>